# ProBuilder 4.1.0
# https://unity3d.com/unity/features/worldbuilding/probuilder
# 15/04/2020 23:32:53

mtllib ./WindowFrame.mtl
o WindowFrame

g Cube
v 1.5 0.75 0.05
v 0.9998999 0.75 0.0500008
v 1.5 1.5 0.05
v 0.9999003 1.5 0.0500008
v -1.5001 0.75 0.04999977
v -1.5001 0.75 -0.05000025
v -1.5001 1.5 0.04999977
v -1.5001 1.5 -0.05000025
v 0.9999004 0.75 -0.0499992
v 1.5 0.75 -0.05
v 0.9999004 1.5 -0.0499992
v 1.5 1.5 -0.05
v 1.5 -1.5001 -0.05000024
v 0.9999003 -1.5001 -0.04999944
v 1.5 -1.5001 0.04999976
v 0.9999003 -1.5001 0.05000056
v -1 0.7500001 0.04999986
v -1 0.7500001 -0.05000016
v -1 1.5 0.04999986
v -1 1.5 -0.05000016
v -1 -1.5001 0.04999962
v -1 -1.5001 -0.0500004
v -1.5001 -1.5001 0.04999953
v -1.5001 -1.5001 -0.05000049
v 1.5 -0.5001003 -0.05000012
v 0.9999003 -0.5001003 -0.04999932
v 1.5 -0.5001003 0.04999988
v 0.9999003 -0.5001003 0.05000068
v -1 -0.5001003 0.04999974
v -1 -0.5001001 -0.05000028
v -1.5001 -0.5001003 0.04999965
v -1.5001 -0.5001003 -0.05000037
v 1 -0.5001 -0.04999897
v 1 -1.5001 0.05000092
v 1 -1.5001 -0.04999909

vt 0.4999919 -0.25
vt -0.0001081214 -0.25
vt 0.499992 0.5
vt -0.0001076445 0.5
vt -0.5000024 -0.25
vt -0.5000024 0.5
vt 9.164384E-05 0.4999999
vt 0.4999999 -0.2499998
vt -0.5000001 -0.2499998
vt -0.5 -0.5
vt 9.959936E-05 -0.499992
vt 0.5 -0.5000018
vt 0.5 0.4999982
vt -2 0.4999986
vt -2 -0.5000015
vt -1.999998 0.5000002
vt -1.999998 -0.2499999
vt 2.000003 -0.2499999
vt 2.000002 0.5000001
vt 2 -0.5000015
vt 2 0.4999986
vt -2.5001 0.4999959
vt -2.5001 -0.5000042
vt -2.500099 0.5
vt -2.500099 -0.25
vt 2.500101 -0.25
vt 2.500101 0.5
vt 2 -0.5000015
vt 2.5001 -0.5000024
vt 2.5001 0.4999977
vt -0.5000079 -1.500101
vt 9.170343E-05 -1.500101
vt -0.4999989 -1.5001
vt 0.5000011 -1.5001
vt -0.499992 -0.25
vt 0.500008 -0.25
vt -0.0001081214 -0.2499995
vt 0.499992 -1.5001
vt -0.4999981 -0.2499999
vt 0.500002 -0.2499999
vt -2.500099 -0.2499995
vt -2.500099 -1.5001
vt -1.999999 -1.5001
vt 2.000001 -0.2500004
vt 2.000001 -1.500101
vt 2.500101 -1.500101
vt 0 0
vt -0.5000079 -2.500101
vt 9.170342E-05 -2.500101
vt -0.4999976 -2.5001
vt 0.5000024 -2.5001
vt 0.499992 -2.5001
vt -2.500099 -2.5001
vt -1.999999 -2.5001
vt 2.000001 -2.500101
vt 2.500101 -2.500101

vn 1.594105E-06 -2.533762E-13 1
vn -1 0 0
vn -1.594108E-06 0 -1
vn 1 -4.768372E-07 -2.384186E-06
vn 0 1 0
vn -3.800646E-12 -1 -2.384186E-06
vn 0 0 0

usemtl ProBuilderDefault
f 3/3/1 4/4/1 2/2/1 1/1/1
f 7/3/2 8/6/2 6/5/2 5/1/2
f 11/7/3 12/6/3 10/5/3 9/2/3
f 12/3/4 3/6/4 1/9/4 10/8/4
f 12/10/5 11/11/5 4/4/5 3/6/5
f 15/13/6 16/4/6 14/11/6 13/12/6
f 17/14/6 18/15/6 9/11/6 2/4/6
f 19/16/1 17/17/1 2/2/1 4/4/1
f 18/18/3 20/19/3 11/7/3 9/2/3
f 20/20/5 19/21/5 4/4/5 11/11/5
f 23/22/6 24/23/6 22/15/6 21/14/6
f 7/24/1 5/25/1 17/17/1 19/16/1
f 6/26/3 8/27/3 20/19/3 18/18/3
f 8/29/5 7/30/5 19/21/5 20/28/5
f 25/31/3 26/32/3 9/2/3 10/5/3
f 27/33/4 25/34/4 10/1/4 1/5/4
f 26/33/2 28/34/2 2/36/2 9/35/2
f 28/32/1 27/38/1 1/8/1 2/37/1
f 29/33/4 30/34/4 18/40/4 17/39/4
f 31/42/1 29/43/1 17/17/1 5/41/1
f 30/45/3 32/46/3 6/26/3 18/44/3
f 32/31/2 31/38/2 5/1/2 6/5/2
f 25/47/7 26/47/7 26/47/7 25/47/7
f 27/47/7 25/47/7 25/47/7 27/47/7
f 26/47/7 28/47/7 28/47/7 26/47/7
f 28/47/7 27/47/7 27/47/7 28/47/7
f 29/47/7 30/47/7 30/47/7 29/47/7
f 31/47/7 29/47/7 29/47/7 31/47/7
f 30/47/7 32/47/7 32/47/7 30/47/7
f 32/47/7 31/47/7 31/47/7 32/47/7
f 13/48/3 14/49/3 26/32/3 25/31/3
f 15/50/4 13/51/4 25/34/4 27/33/4
f 14/50/2 16/51/2 28/34/2 26/33/2
f 16/49/1 15/52/1 27/38/1 28/32/1
f 34/48/4 35/52/4 33/38/4 28/31/4
f 23/53/1 21/54/1 29/43/1 31/42/1
f 22/55/3 24/56/3 32/46/3 30/45/3
f 24/48/2 23/52/2 31/38/2 32/31/2
f 28/4/5 33/11/5 30/20/5 29/21/5
f 34/49/1 28/32/1 29/43/1 21/54/1
f 33/32/3 35/49/3 22/55/3 30/45/3
f 35/11/6 34/4/6 21/14/6 22/15/6

